<svg xmlns="http://www.w3.org/2000/svg" viewBox="0 0 512 512" width="512" height="512">
  <!-- Фон щита -->
  <path d="M256 16c-12 0-236 80-236 80v144c0 132 108 212 236 256 128-44 236-124 236-256V96s-224-80-236-80z" fill="#1976d2" opacity="0.2"/>
  <!-- Контур щита -->
  <path d="M256 16c-12 0-236 80-236 80v144c0 132 108 212 236 256 128-44 236-124 236-256V96s-224-80-236-80z" fill="none" stroke="#1976d2" stroke-width="12" stroke-linejoin="round"/>
  <!-- Галочка внутри щита -->
  <path d="M160 256l64 64 128-128" fill="none" stroke="#1976d2" stroke-width="24" stroke-linecap="round" stroke-linejoin="round"/>
  <!-- Замок -->
  <g transform="translate(256, 180) scale(0.5)">
    <rect x="-60" y="-20" width="120" height="100" rx="10" ry="10" fill="#1976d2"/>
    <rect x="-40" y="-60" width="80" height="60" rx="10" ry="10" fill="#1976d2"/>
    <circle cx="0" cy="20" r="16" fill="#ffffff"/>
    <rect x="-5" y="10" width="10" height="30" rx="2" ry="2" fill="#ffffff"/>
  </g>
</svg>