<svg xmlns="http://www.w3.org/2000/svg" viewBox="0 0 800 600">
  <defs>
    <linearGradient id="bg" x1="0%" y1="0%" x2="100%" y2="100%">
      <stop offset="0%" stop-color="#e3f2fd" />
      <stop offset="100%" stop-color="#bbdefb" />
    </linearGradient>
    <linearGradient id="screen" x1="0%" y1="0%" x2="100%" y2="100%">
      <stop offset="0%" stop-color="#1976d2" />
      <stop offset="100%" stop-color="#2196f3" />
    </linearGradient>
  </defs>
  
  <!-- Background -->
  <rect width="800" height="600" fill="url(#bg)" />
  
  <!-- Support Person 1 -->
  <circle cx="300" cy="200" r="60" fill="#90caf9" />
  <circle cx="300" cy="200" r="50" fill="#ffffff" />
  <circle cx="300" cy="180" r="25" fill="#64b5f6" />
  <rect x="275" y="210" width="50" height="60" rx="10" fill="#64b5f6" />
  
  <!-- Support Person 2 -->
  <circle cx="500" cy="220" r="60" fill="#90caf9" />
  <circle cx="500" cy="220" r="50" fill="#ffffff" />
  <circle cx="500" cy="200" r="25" fill="#64b5f6" />
  <rect x="475" y="230" width="50" height="60" rx="10" fill="#64b5f6" />
  
  <!-- Computer Screen -->
  <rect x="350" y="300" width="100" height="80" rx="5" fill="url(#screen)" />
  <rect x="360" y="310" width="80" height="60" rx="2" fill="#ffffff" />
  <rect x="370" y="320" width="60" height="5" rx="2" fill="#bbdefb" />
  <rect x="370" y="330" width="60" height="5" rx="2" fill="#bbdefb" />
  <rect x="370" y="340" width="40" height="5" rx="2" fill="#bbdefb" />
  
  <!-- Chat Bubbles -->
  <circle cx="200" cy="350" r="30" fill="#1976d2" />
  <circle cx="600" cy="320" r="25" fill="#1976d2" />
  <circle cx="150" cy="420" r="20" fill="#1976d2" />
  <circle cx="650" cy="400" r="35" fill="#1976d2" />
  
  <!-- Connection Lines -->
  <line x1="250" y1="250" x2="350" y2="300" stroke="#1976d2" stroke-width="3" />
  <line x1="550" y1="270" x2="450" y2="300" stroke="#1976d2" stroke-width="3" />
  <line x1="230" y1="350" x2="350" y2="340" stroke="#1976d2" stroke-width="2" stroke-dasharray="5,5" />
  <line x1="570" y1="320" x2="450" y2="330" stroke="#1976d2" stroke-width="2" stroke-dasharray="5,5" />
</svg>